<?xml version="1.0" standalone="no"?>
<!DOCTYPE svg PUBLIC "-//W3C//DTD SVG 20010904//EN"
 "http://www.w3.org/TR/2001/REC-SVG-20010904/DTD/svg10.dtd">
<svg version="1.0" xmlns="http://www.w3.org/2000/svg"
 width="1350.000000pt" height="1350.000000pt" viewBox="0 0 1350.000000 1350.000000"
 preserveAspectRatio="xMidYMid meet">
<metadata>
Created by potrace 1.10, written by Peter Selinger 2001-2011
</metadata>
<g transform="translate(0.000000,1350.000000) scale(0.100000,-0.100000)"
fill="#000000" stroke="none">
<path d="M0 6750 l0 -6750 840 0 840 0 -5 53 c-3 28 -9 75 -14 102 -13 69 -14
155 -1 135 5 -8 10 -27 10 -41 0 -15 11 -52 25 -83 14 -31 25 -69 25 -85 0
-16 7 -34 15 -41 8 -7 15 -19 15 -26 0 -12 167 -14 1065 -14 586 0 1065 4
1065 8 0 4 -5 13 -11 19 -20 20 -36 124 -26 173 10 49 11 65 6 153 -3 65 -14
79 -38 50 -26 -31 -70 -55 -130 -69 -67 -16 -304 -18 -382 -4 -72 13 -267 28
-884 66 -137 8 -266 19 -285 24 -19 5 -71 12 -115 15 -44 4 -122 18 -174 31
-51 14 -114 25 -140 26 -55 2 -114 36 -136 77 -19 37 -19 88 0 166 8 33 15 92
15 131 0 41 7 90 16 115 18 49 21 124 15 426 -2 111 1 211 7 240 20 89 31 265
21 333 -11 74 -11 64 -4 270 3 85 12 194 20 243 19 108 18 165 0 242 -19 78
-19 191 0 245 8 23 15 60 15 82 0 39 25 99 64 153 12 17 28 44 35 60 7 17 19
37 27 45 62 68 144 197 144 228 0 11 28 74 62 139 l61 118 2 111 c1 102 3 114
30 160 15 27 42 66 58 87 37 47 56 99 57 153 0 32 8 49 36 83 42 49 128 114
164 126 14 4 42 19 62 31 21 13 40 24 42 24 2 0 28 16 57 35 30 19 58 35 63
35 34 0 292 148 321 184 6 7 32 30 60 50 62 48 160 132 245 211 168 155 294
265 305 265 7 0 40 27 120 98 17 15 73 60 126 100 76 57 109 91 164 167 40 56
84 104 104 117 20 11 61 46 92 77 76 76 152 130 192 137 52 9 105 35 121 59
20 30 107 80 191 109 70 24 115 68 115 112 0 27 27 88 59 133 13 18 28 54 33
79 9 52 12 56 31 49 9 -3 19 -43 30 -124 19 -138 32 -170 90 -209 23 -16 44
-33 46 -38 17 -40 81 -62 81 -28 0 24 -19 42 -44 42 -20 0 -20 1 2 16 25 18
28 36 7 54 -9 8 -12 22 -8 42 4 20 1 33 -8 39 -9 7 4 7 36 3 51 -7 65 -16 65
-45 0 -9 7 -22 15 -29 8 -7 15 -20 15 -30 0 -23 47 -55 63 -42 7 5 36 13 65
17 29 4 56 13 58 20 4 9 13 8 39 -4 42 -19 45 -41 8 -41 -41 0 -57 -15 -59
-53 -1 -30 2 -34 21 -33 16 1 21 6 17 19 -2 9 1 17 6 17 6 0 20 9 31 21 15 16
26 19 48 15 33 -8 55 -36 43 -56 -6 -9 0 -20 16 -32 13 -11 24 -26 24 -33 0
-8 9 -19 20 -25 26 -14 25 -26 -2 -34 l-23 -6 24 -20 c13 -11 24 -32 25 -48 3
-34 26 -82 40 -82 16 -1 87 -66 79 -73 -3 -4 -14 -7 -24 -7 -18 0 -33 -26 -23
-42 3 -5 12 -7 20 -4 11 4 11 0 -2 -19 -9 -14 -24 -25 -33 -25 -27 0 -33 -12
-15 -31 16 -18 14 -22 -31 -54 -19 -13 -19 -15 -2 -43 23 -41 23 -42 -22 -42
-67 0 -137 39 -233 130 -127 121 -207 186 -265 217 -18 9 -33 20 -33 24 0 4
-9 9 -20 12 -11 3 -20 3 -20 0 0 -16 66 -95 107 -128 26 -22 50 -42 53 -45 28
-30 150 -130 159 -130 6 0 11 -3 11 -8 0 -4 24 -26 53 -49 30 -23 65 -51 78
-62 42 -36 198 -150 221 -162 13 -7 28 -18 33 -24 6 -7 38 -33 73 -60 l63 -47
204 1 c112 1 218 6 235 11 17 5 63 12 103 15 40 4 89 13 110 21 20 8 50 14 66
14 16 0 42 7 57 15 16 8 36 15 44 15 8 0 24 7 34 15 11 8 26 15 33 15 12 0
193 86 238 113 95 58 288 229 318 282 19 34 51 321 54 483 3 143 1 176 -12
194 -8 13 -15 38 -15 58 0 19 -7 44 -15 54 -8 11 -15 32 -15 48 0 21 -5 28
-20 28 -25 0 -26 -35 -6 -131 14 -67 11 -155 -5 -165 -5 -3 -9 -19 -9 -36 0
-24 -3 -29 -16 -24 -14 6 -16 1 -10 -35 5 -30 3 -40 -6 -37 -7 3 -15 15 -18
29 -4 17 -14 25 -32 27 -22 3 -26 8 -26 35 0 101 -6 146 -18 151 -8 3 -14 15
-14 26 0 11 -5 29 -12 39 -9 15 -8 28 4 60 15 39 15 41 -1 41 -28 0 -32 11
-15 38 11 17 13 27 5 35 -16 16 -14 42 4 57 8 7 15 24 15 39 0 15 6 35 14 46
17 26 9 83 -14 95 -17 9 -17 13 -4 57 8 27 12 62 9 78 -3 17 -6 48 -5 71 0 26
-5 46 -15 54 -19 16 -19 36 0 44 16 6 21 41 6 50 -5 3 -12 -5 -15 -19 -7 -27
-40 -65 -56 -65 -13 0 -13 33 -1 45 19 20 61 107 61 128 1 22 21 57 34 57 4 0
5 -4 2 -8 -3 -5 -1 -33 5 -63 16 -84 19 -114 25 -259 3 -77 11 -154 19 -179 8
-25 15 -57 15 -73 0 -34 14 -41 125 -57 44 -6 132 -30 195 -52 63 -23 127 -42
142 -44 15 -2 37 -10 50 -19 12 -9 30 -16 38 -16 9 0 22 -6 28 -12 7 -7 38
-18 70 -25 93 -20 159 -34 189 -38 15 -2 51 -9 78 -15 54 -11 219 -37 325 -50
36 -4 101 -13 145 -19 131 -18 226 -31 290 -40 33 -4 76 -13 95 -19 95 -29
193 -42 320 -43 92 0 148 -5 175 -14 22 -8 46 -15 53 -15 8 0 28 -6 45 -14 54
-24 169 -56 201 -56 40 0 94 -36 198 -131 46 -42 112 -95 148 -119 176 -117
245 -183 368 -350 26 -36 122 -198 122 -206 0 -4 9 -26 19 -48 60 -126 123
-269 145 -326 10 -25 24 -60 32 -78 8 -18 14 -39 14 -47 0 -8 6 -29 14 -47 26
-60 76 -232 93 -318 9 -47 27 -125 40 -175 13 -49 28 -108 34 -130 6 -22 20
-65 33 -95 33 -79 56 -154 56 -182 0 -13 5 -29 11 -35 6 -6 15 -29 19 -50 11
-50 31 -104 76 -199 21 -45 42 -112 50 -159 22 -124 43 -183 79 -225 12 -14
38 -54 58 -90 19 -36 48 -88 65 -116 58 -100 66 -208 21 -299 -49 -98 -207
-244 -404 -374 -108 -71 -106 -70 -210 -126 -38 -20 -77 -43 -85 -50 -28 -23
-321 -166 -425 -208 -87 -34 -249 -77 -293 -77 -17 0 -24 -9 -32 -42 -7 -24
-17 -52 -24 -63 -7 -11 -15 -31 -19 -44 -8 -34 10 -225 34 -356 11 -60 24
-131 29 -156 5 -26 13 -64 19 -85 6 -22 11 -54 11 -73 0 -32 12 -86 45 -206
39 -140 45 -177 45 -286 0 -65 7 -140 15 -174 8 -33 14 -73 15 -90 0 -29 18
-125 45 -235 7 -30 20 -84 27 -120 l13 -65 1583 -3 1582 -2 0 6750 0 6750
-1296 0 c-861 0 -1293 -3 -1289 -10 3 -5 1 -10 -4 -10 -6 0 -11 -6 -11 -13 0
-8 -19 -22 -42 -32 -24 -10 -60 -36 -81 -57 -44 -45 -74 -47 -69 -5 1 14 -8
49 -20 76 l-23 51 -197 0 c-131 0 -198 -4 -198 -10 0 -6 -10 -24 -21 -40 -13
-17 -20 -37 -16 -49 3 -12 1 -19 -4 -16 -5 3 -18 1 -29 -5 -12 -6 -94 -12
-196 -14 -162 -3 -176 -2 -200 17 -35 27 -45 57 -28 82 8 11 14 23 14 27 0 5
-66 8 -146 8 l-146 0 7 -22 c4 -13 6 -32 5 -43 -8 -71 -4 -89 16 -100 17 -9
20 -15 12 -35 -7 -18 -5 -33 7 -53 16 -27 16 -30 -1 -48 -36 -40 -124 -15
-165 47 -15 22 -29 60 -33 87 -4 37 -13 56 -36 77 -21 19 -30 37 -30 59 l0 31
-4640 0 -4640 0 0 -6750z m10878 6574 c42 -20 86 -44 97 -54 11 -10 58 -31
104 -46 55 -19 89 -36 100 -52 9 -13 28 -38 44 -55 l28 -32 30 18 c17 9 37 17
44 17 19 0 35 -32 35 -67 0 -16 5 -34 12 -41 6 -6 10 -13 7 -14 -42 -26 -108
-48 -164 -55 -62 -7 -71 -11 -83 -35 -10 -21 -10 -36 0 -72 10 -37 9 -50 -2
-72 -14 -26 -16 -26 -87 -21 l-73 5 0 -31 c0 -28 -6 -35 -41 -51 -62 -28 -100
-14 -119 45 -12 40 -20 47 -66 68 -69 30 -134 92 -134 127 0 59 41 199 67 226
14 15 30 47 35 75 6 26 14 66 18 87 8 39 31 66 57 66 8 0 49 -16 91 -36z m803
-306 c72 -24 109 -57 140 -121 31 -66 37 -114 17 -139 -28 -34 -164 -97 -224
-104 -81 -8 -94 -13 -71 -25 27 -16 21 -25 -32 -48 -122 -52 -228 7 -203 115
l7 31 55 -13 c30 -8 65 -20 78 -26 19 -10 25 -9 32 2 15 24 12 44 -10 63 -19
16 -26 38 -20 62 1 6 3 24 4 40 7 96 15 112 75 144 60 33 99 38 152 19z m-347
-557 c10 -11 26 -52 35 -91 17 -69 17 -75 1 -128 -19 -61 -71 -125 -116 -142
-14 -6 -45 -11 -70 -12 -39 -1 -49 3 -69 28 -42 52 -66 129 -59 192 9 92 12
101 54 128 32 22 55 28 112 30 39 2 73 6 76 9 9 9 18 6 36 -14z m1095 -456
c69 -27 148 -74 176 -105 16 -17 17 -31 9 -135 l-9 -116 -48 -27 c-47 -25 -49
-26 -110 -11 -34 8 -95 13 -135 12 -65 -1 -77 -4 -101 -27 -36 -34 -67 -33
-146 6 -60 30 -67 31 -98 19 -55 -23 -94 -24 -149 -5 -72 26 -118 73 -118 122
0 40 50 139 75 149 8 3 15 11 15 19 0 8 10 14 22 14 12 0 37 5 55 12 27 10 38
10 53 0 42 -26 154 -8 200 32 8 8 51 24 95 36 44 12 85 24 90 25 28 9 67 3
124 -20z m-3351 -66 c2 -25 -3 -40 -18 -54 -32 -29 -43 -7 -24 49 18 54 38 56
42 5z m-2865 -307 c14 -15 30 -17 106 -15 51 1 93 -2 96 -7 4 -7 13 -6 26 0
15 9 21 7 25 -5 4 -9 19 -15 39 -15 35 0 82 -17 155 -54 25 -13 58 -26 73 -30
16 -4 45 -17 65 -30 20 -13 71 -40 112 -60 41 -21 82 -41 90 -45 8 -5 16 -18
18 -30 2 -13 11 -21 23 -21 25 0 55 -17 101 -57 20 -17 50 -39 65 -47 31 -15
85 -73 143 -151 49 -67 104 -135 134 -168 28 -30 34 -57 14 -57 -7 0 -5 -5 5
-11 21 -12 23 -49 3 -49 -8 0 -18 5 -22 12 -5 8 -17 0 -35 -22 -32 -38 -49
-34 -30 6 10 23 8 30 -14 59 -26 35 -33 65 -14 65 14 0 7 52 -8 57 -7 3 -13
-8 -15 -24 -2 -19 -8 -27 -18 -24 -8 2 -22 3 -30 2 -41 -5 -65 -2 -68 8 -8 23
-34 41 -60 41 l-26 0 22 -16 c27 -19 32 -60 5 -45 -10 5 -24 6 -33 2 -8 -5
-30 -11 -47 -14 -26 -5 -35 -2 -43 12 -13 25 -48 16 -62 -15 -15 -32 -66 -58
-84 -43 -8 6 -25 8 -39 5 -20 -5 -25 -3 -25 13 0 10 7 22 16 25 8 3 12 11 9
17 -5 7 -13 5 -26 -7 -15 -14 -21 -15 -34 -4 -19 16 -32 5 -16 -14 9 -11 8
-15 -5 -20 -30 -11 -34 -6 -32 35 2 27 -2 43 -9 46 -12 4 -16 -2 -29 -45 -3
-10 -11 -8 -30 7 -28 22 -64 28 -64 11 0 -5 -7 -7 -16 -3 -10 4 -22 -1 -30
-11 -14 -20 -34 -14 -34 10 0 8 14 28 30 44 17 16 30 37 30 47 0 25 13 43 40
56 13 7 23 17 24 22 2 17 -45 18 -57 2 -7 -9 -23 -17 -37 -19 -20 -2 -25 -8
-22 -30 2 -22 -1 -25 -18 -21 -11 3 -27 0 -34 -7 -11 -8 -20 -8 -35 -1 -29 16
-41 13 -41 -9 0 -11 -7 -20 -15 -20 -18 0 -20 21 -3 38 9 9 7 13 -5 18 -19 7
-47 -1 -47 -13 0 -4 9 -23 20 -40 15 -26 26 -33 51 -33 24 0 30 -4 27 -17 -3
-14 -11 -17 -41 -15 -27 3 -39 -1 -43 -12 -3 -9 -12 -16 -20 -16 -20 0 -17 29
3 37 15 6 15 7 -3 14 -10 4 -31 8 -46 8 -23 1 -28 6 -28 25 0 35 -15 40 -34
11 -20 -30 -20 -45 -1 -45 8 0 15 -4 15 -10 0 -15 -43 -12 -67 5 -26 18 -42 3
-22 -21 11 -13 9 -14 -14 -3 -15 7 -27 18 -27 25 0 7 -9 18 -20 24 -11 6 -20
17 -20 25 0 23 -17 18 -24 -7 -5 -18 -8 -20 -15 -9 -5 8 -4 26 5 47 17 41 17
44 2 44 -26 -1 -61 -42 -67 -76 -7 -42 -35 -60 -103 -69 -33 -4 -48 -11 -48
-21 0 -8 -16 -30 -36 -48 l-36 -33 26 -17 c25 -16 27 -16 36 6 14 35 46 68 65
68 12 0 16 -8 13 -32 -3 -32 -2 -33 42 -38 25 -3 60 -16 78 -29 40 -28 51 -22
27 15 -9 14 -15 35 -12 46 4 14 -1 22 -19 29 -20 7 -25 15 -22 37 4 38 30 34
42 -5 5 -18 14 -34 20 -34 6 -1 25 -2 41 -3 27 -1 30 -5 35 -40 5 -36 10 -42
57 -65 29 -14 54 -34 57 -44 3 -14 10 -17 26 -12 13 4 33 1 47 -6 19 -10 28
-10 44 -1 18 11 19 9 19 -27 0 -22 3 -46 6 -54 3 -8 -2 -21 -11 -28 -55 -47
-85 -78 -85 -88 0 -8 -6 -8 -21 1 -17 11 -22 10 -30 -4 -6 -10 -20 -18 -33
-18 -26 0 -50 -22 -38 -35 4 -4 -3 -4 -16 -1 -17 6 -32 -1 -63 -25 -53 -42
-101 -58 -171 -59 -58 0 -73 -11 -48 -36 13 -13 -59 -64 -89 -64 -10 0 -24 -7
-31 -14 -9 -11 -43 -16 -138 -19 -87 -2 -144 -9 -182 -21 -73 -25 -144 -31
-180 -16 -22 9 -41 9 -85 -1 -45 -10 -58 -10 -68 1 -9 10 -9 13 1 17 6 3 12 9
12 14 0 16 -44 10 -74 -10 l-29 -19 28 -15 28 -14 -29 -7 c-22 -6 -32 -3 -44
12 -10 12 -35 22 -68 27 -56 7 -54 9 -77 -63 -6 -21 -4 -23 13 -18 16 5 22 1
28 -16 8 -27 22 -38 49 -38 12 0 27 -13 37 -30 11 -20 28 -33 48 -36 16 -4 30
-12 30 -18 0 -18 77 -66 105 -66 12 0 28 -7 35 -15 14 -17 30 -20 30 -6 0 5 5
22 12 38 6 15 12 36 12 45 1 10 23 40 49 67 40 41 57 51 95 57 93 14 256 8
325 -12 31 -10 -1 -34 -45 -34 -21 0 -49 -7 -63 -16 -17 -11 -48 -15 -114 -15
-103 1 -146 -13 -184 -59 -25 -29 -27 -60 -5 -60 5 0 21 -9 35 -20 20 -16 22
-20 8 -20 -9 0 -21 -12 -27 -27 -6 -16 -31 -41 -56 -58 -25 -16 -49 -37 -52
-45 -29 -66 -38 -75 -116 -114 -70 -36 -90 -42 -140 -41 -33 1 -69 6 -81 13
-27 15 -88 16 -114 2 -10 -6 -56 -13 -101 -16 -108 -7 -134 -22 -159 -94 -10
-30 -18 -65 -19 -78 0 -13 -5 -33 -12 -45 -16 -29 -11 -166 7 -193 22 -34 232
-244 244 -244 16 0 51 -42 51 -62 0 -13 8 -18 25 -18 33 0 73 -42 81 -86 3
-19 11 -34 17 -34 6 0 19 -7 29 -17 15 -13 23 -14 44 -5 13 7 38 12 54 12 27
0 28 -2 20 -27 -5 -16 -14 -55 -20 -87 -8 -40 -20 -66 -38 -83 -19 -18 -26
-36 -30 -77 -4 -48 -2 -55 17 -61 13 -4 28 -1 38 7 9 7 23 13 32 13 10 0 17
10 19 28 2 16 15 45 28 65 30 44 127 147 158 168 13 7 33 35 46 61 13 27 41
77 63 113 22 35 46 85 53 112 17 55 59 92 85 75 9 -6 24 -7 34 -3 14 5 15 9 5
21 -15 19 -6 45 16 45 14 0 14 2 3 16 -11 14 -10 19 10 35 33 27 42 21 56 -34
7 -26 19 -53 27 -60 9 -7 18 -34 20 -63 4 -39 15 -67 46 -114 45 -67 72 -142
72 -200 0 -47 20 -73 75 -100 69 -33 115 -81 115 -118 0 -38 -26 -54 -77 -50
-32 3 -41 9 -63 48 -25 42 -29 45 -66 44 -76 -3 -185 -17 -190 -25 -3 -5 -20
-9 -38 -9 -19 0 -39 -7 -46 -15 -9 -11 -34 -15 -94 -15 -54 0 -89 -5 -101 -14
-18 -13 -18 -14 2 -24 11 -6 36 -9 55 -6 19 4 45 1 56 -5 13 -7 29 -8 45 -2
19 7 28 5 40 -10 20 -23 22 -32 5 -26 -7 2 -23 -5 -35 -15 l-22 -20 -55 23
c-31 12 -56 26 -56 31 0 11 -58 10 -100 -2 -19 -5 -48 -20 -64 -33 l-28 -23
21 -42 c11 -22 21 -56 21 -73 0 -62 24 -154 48 -187 31 -43 24 -77 -21 -95
-39 -17 -53 -33 -59 -70 -4 -21 0 -32 13 -40 29 -18 23 -25 -29 -32 -33 -4
-67 -1 -105 10 -41 12 -73 14 -112 10 -46 -6 -56 -5 -61 9 -9 23 19 51 67 65
22 7 43 19 46 27 12 31 -75 72 -92 43 -19 -31 -84 -23 -106 12 -19 31 -58 -39
-71 -126 -5 -32 -32 -23 -45 15 -7 19 -12 61 -12 93 -1 56 -12 72 -29 42 -15
-27 -42 -7 -42 31 0 22 -6 37 -16 41 -8 3 -13 12 -10 20 8 21 -22 28 -43 9
-10 -9 -23 -16 -31 -16 -9 0 -11 -13 -5 -57 11 -90 11 -168 0 -171 -5 -2 -13
16 -17 39 -4 22 -12 47 -18 54 -5 6 -14 38 -19 71 -5 32 -14 77 -20 99 -28
115 -41 176 -41 200 0 14 -8 42 -19 63 -10 20 -24 66 -30 102 -7 37 -25 85
-42 111 -23 36 -29 57 -29 100 1 32 7 62 15 73 12 16 15 58 15 205 0 191 -18
335 -46 376 -8 10 -14 26 -14 35 0 8 -14 32 -31 53 -43 52 -50 108 -17 139 13
13 38 30 55 40 l32 16 6 229 c3 125 7 271 8 323 3 82 1 97 -15 108 -22 16 -23
35 -3 52 9 7 13 21 10 30 -3 11 5 30 20 48 24 29 20 53 -6 36 -23 -14 -26 19
-7 69 11 29 21 70 23 91 2 22 13 52 25 67 11 16 20 35 20 44 0 9 18 53 40 99
22 45 40 85 40 89 0 8 64 93 94 124 11 13 27 23 34 23 6 0 12 4 12 9 0 15 90
110 110 116 10 3 28 21 39 40 11 19 35 41 53 48 18 8 55 33 83 56 71 59 111
76 154 65 32 -8 36 -13 39 -46 2 -21 5 -38 8 -38 3 0 17 13 31 30 19 24 30 29
50 24 13 -4 35 -1 48 6 20 11 27 11 40 0 23 -19 18 -34 -15 -53 -16 -10 -30
-22 -30 -28 0 -12 37 -12 44 0 3 5 23 7 44 4 20 -3 56 2 80 10 41 14 43 14 61
-9 23 -29 38 -30 69 -5 31 26 28 34 -11 27 -31 -6 -33 -4 -45 34 -17 57 -15
62 15 34 18 -17 34 -23 48 -19 37 11 85 15 85 8 -1 -14 -24 -39 -42 -46 -10
-3 -18 -11 -18 -17 0 -13 37 -13 46 1 3 6 17 8 31 4 16 -4 34 1 54 16 22 15
39 20 62 16 18 -3 26 -3 20 0 -13 5 -19 43 -7 43 12 0 50 -23 67 -41 13 -14
31 -18 67 -18 55 2 55 2 40 30 -8 15 -7 19 5 19 8 0 15 -4 15 -10 0 -16 27
-11 34 6 8 20 51 15 51 -6 0 -10 -8 -14 -23 -12 -15 1 -22 -2 -20 -10 10 -31
98 -15 98 17 0 36 58 7 73 -37 4 -12 17 -18 37 -18 24 0 30 4 31 23 2 21 2 21
6 1 5 -28 51 -38 75 -17 13 11 21 13 30 5 9 -7 18 -7 31 2 24 18 22 46 -3 46
-26 0 -102 50 -97 64 6 19 60 19 74 0 12 -16 13 -15 21 7 12 30 -17 54 -54 45
-17 -5 -26 -2 -31 10 -3 8 -16 20 -29 25 -23 8 -34 39 -14 39 6 0 10 -7 10
-15 0 -8 4 -15 9 -15 16 0 31 27 25 44 -4 11 -1 16 10 16 10 0 16 -7 14 -17
-2 -14 8 -19 57 -26 47 -6 66 -14 88 -38 15 -16 34 -29 41 -29 7 0 21 -9 31
-20 10 -11 29 -20 42 -20 13 0 33 -5 44 -11 15 -7 27 -6 49 5 28 13 31 13 40
-5 10 -18 40 -27 40 -11 0 4 3 17 6 29 5 18 3 21 -15 16 -15 -4 -21 -1 -21 11
0 13 -8 16 -37 14 -31 -2 -40 1 -48 20 -5 12 -18 25 -27 28 -10 3 -18 9 -18
13 0 13 -48 31 -83 31 -36 1 -122 22 -133 33 -4 3 -2 13 5 21 10 12 2 13 -54
8 -64 -5 -67 -4 -95 26 -15 17 -25 33 -22 36 12 12 50 5 65 -12z m-80 -108 c9
-9 -4 -35 -14 -28 -5 3 -9 12 -9 20 0 14 12 19 23 8z m-823 -43 c0 -12 -20
-25 -27 -18 -7 7 6 27 18 27 5 0 9 -4 9 -9z m1212 -7 c5 -3 8 -11 8 -18 0 -9
-14 -13 -44 -12 -50 1 -61 8 -52 32 5 13 14 15 44 9 20 -4 40 -9 44 -11z
m-625 -29 c14 -38 -65 -73 -95 -43 -8 8 -15 8 -27 -2 -26 -22 -43 4 -20 30 19
21 85 29 85 10 0 -5 7 -10 15 -10 8 0 15 7 15 15 0 20 19 19 27 0z m139 -19
c10 -8 15 -18 11 -23 -5 -4 -14 -1 -20 8 -7 9 -19 18 -27 22 -13 5 -13 6 1 6
8 1 24 -5 35 -13z m92 -4 c10 -10 26 -21 35 -25 21 -8 22 -36 2 -43 -17 -7
-75 47 -75 70 0 21 16 20 38 -2z m-400 -10 c2 -7 -3 -12 -12 -12 -9 0 -16 7
-16 16 0 17 22 14 28 -4z m-619 -31 c17 -13 22 -23 16 -39 -9 -29 -16 -28 -49
7 -42 44 -16 70 33 32z m191 -56 c0 -20 -5 -25 -23 -25 -31 0 -38 9 -26 31 15
29 49 25 49 -6z m1346 -446 c4 -7 -4 -20 -17 -30 -29 -22 -33 -19 -18 15 13
28 24 33 35 15z m663 -3 c9 -11 8 -18 -4 -30 -29 -29 -54 -12 -35 24 13 24 23
25 39 6z m-271 -54 c-1 -15 1 -33 6 -40 4 -7 1 -12 -9 -12 -16 0 -19 5 -29 53
-5 22 -3 27 14 27 16 0 20 -6 18 -28z m-748 3 c0 -8 -4 -15 -9 -15 -5 0 -14 7
-21 15 -10 13 -9 15 9 15 12 0 21 -6 21 -15z m690 -21 c0 -8 -7 -14 -15 -14
-8 0 -15 -7 -15 -15 0 -8 -7 -15 -15 -15 -19 0 -20 19 0 26 8 3 17 14 20 25 7
21 25 16 25 -7z m569 -80 c25 -32 26 -43 6 -51 -21 -7 -25 -2 -35 41 -9 43 1
46 29 10z m-1779 -813 c0 -10 -7 -24 -16 -31 -13 -11 -19 -10 -37 8 l-21 22
27 0 c15 0 27 5 27 10 0 6 5 10 10 10 6 0 10 -8 10 -19z m1986 -486 c4 -8 3
-27 -1 -43 l-8 -27 -14 33 c-13 33 -11 52 8 52 5 0 12 -7 15 -15z m-2632 -176
c14 -11 26 -24 26 -29 0 -22 -122 -41 -135 -20 -3 6 3 24 15 40 25 36 56 39
94 9z m1287 -19 c5 0 9 -4 9 -9 0 -11 -56 -32 -64 -24 -11 11 16 45 31 39 8
-3 19 -6 24 -6z m1219 -524 c0 -28 -12 -46 -31 -46 -24 0 -35 -25 -21 -43 12
-15 -10 -106 -35 -144 -13 -19 -18 -21 -37 -11 -42 22 -46 44 -11 60 23 10 26
17 24 60 -2 45 0 51 44 93 49 47 67 55 67 31z m-1062 -14 c2 -7 -4 -15 -13
-18 -20 -8 -27 -1 -19 20 7 18 25 17 32 -2z m889 -352 c31 0 29 -19 -4 -47
-30 -26 -46 -29 -62 -9 -19 22 12 87 33 66 5 -5 20 -10 33 -10z m-417 -464 c0
-8 -9 -18 -20 -21 -12 -4 -20 -15 -20 -29 0 -12 -5 -27 -11 -33 -13 -13 -4
-33 17 -33 18 0 18 -15 -2 -46 -9 -13 -14 -27 -11 -30 9 -9 66 25 77 46 6 11
17 20 25 20 22 0 28 20 11 39 -21 23 -20 31 4 31 20 0 70 43 70 61 0 6 6 9 13
7 29 -10 14 -162 -19 -189 -8 -6 -14 -20 -14 -30 0 -11 -4 -27 -10 -37 -17
-31 -39 -86 -56 -142 -10 -30 -23 -64 -31 -75 -7 -11 -13 -30 -13 -42 0 -70
-173 -307 -220 -302 -8 1 -36 -8 -63 -20 -42 -20 -49 -20 -68 -8 -13 10 -16
17 -10 22 6 3 11 10 11 16 0 14 -28 11 -37 -4 -4 -7 -29 -25 -55 -40 -77 -44
-113 -31 -68 26 22 28 10 48 -15 27 -12 -10 -15 -9 -15 5 0 10 27 54 60 97 74
98 78 131 24 166 -20 12 -39 22 -44 22 -23 0 -14 36 25 107 61 110 113 173
141 173 35 0 74 18 111 50 19 17 40 30 48 30 21 0 19 16 -2 25 -14 5 -11 9 17
18 20 7 39 22 45 35 6 13 22 26 37 29 15 3 30 14 33 24 7 22 35 26 35 5z
m-2514 -143 c-7 -17 -8 -17 -17 0 -12 21 -2 44 13 29 6 -6 8 -19 4 -29z m857
-103 c23 -18 27 -19 35 -5 12 22 87 17 87 -5 0 -8 -10 -16 -21 -18 -12 -2 -41
-24 -65 -50 -36 -39 -44 -44 -47 -28 -2 10 2 22 9 27 10 6 9 12 -6 30 -11 12
-30 25 -42 30 -13 5 -23 15 -23 24 0 22 42 19 73 -5z m311 4 c25 -9 19 -18
-24 -43 -33 -18 -47 -21 -82 -14 -33 7 -44 14 -46 30 -3 20 1 22 43 21 25 0
49 2 52 6 8 8 37 8 57 0z m-933 -24 c10 -6 19 -18 19 -26 0 -9 14 -33 30 -54
17 -21 30 -42 30 -47 0 -12 59 -67 86 -81 25 -13 120 -2 152 19 12 7 22 23 22
34 0 12 6 27 12 33 10 10 10 17 0 32 -15 25 1 27 44 6 44 -23 141 -47 219 -57
152 -18 178 -33 75 -43 -33 -3 -87 -9 -120 -12 -50 -5 -60 -9 -60 -24 0 -11 8
-23 17 -28 15 -9 16 -12 0 -35 -12 -19 -28 -26 -71 -31 -30 -4 -76 -4 -100 -1
-42 7 -48 5 -76 -24 -18 -17 -36 -31 -42 -31 -6 0 -4 -8 5 -18 10 -10 17 -23
17 -28 0 -5 20 -27 45 -48 25 -20 43 -42 40 -47 -4 -5 1 -12 9 -15 8 -3 18
-16 22 -27 4 -12 12 -26 19 -32 6 -5 22 -35 34 -65 13 -30 26 -59 30 -63 4 -4
20 10 35 32 28 40 29 40 52 23 24 -18 31 -46 14 -57 -6 -3 -13 1 -16 9 -3 9
-13 16 -21 16 -16 0 -15 -23 2 -64 7 -16 5 -18 -11 -12 -10 4 -36 10 -56 13
-21 3 -51 18 -69 34 -18 16 -36 29 -40 29 -4 0 -36 28 -71 63 -35 34 -85 80
-111 101 -27 21 -55 53 -64 70 -9 17 -19 33 -22 36 -14 10 -131 169 -131 177
0 5 -13 24 -30 43 -16 19 -29 40 -30 46 0 6 -7 17 -15 24 -8 7 -15 23 -15 35
0 28 54 85 80 85 10 0 22 5 25 10 8 13 12 12 36 0z m939 -860 c0 -5 -4 -10
-10 -10 -22 0 -8 -19 29 -38 22 -12 50 -26 63 -33 13 -7 30 -15 38 -19 21 -10
25 -49 5 -56 -9 -4 -24 1 -33 9 -10 9 -62 39 -117 67 -55 28 -100 54 -100 56
0 3 11 12 25 19 29 16 100 20 100 5z m-157 -152 c15 -7 27 -16 27 -20 0 -12
-28 -9 -35 3 -4 6 -17 14 -29 19 -13 6 -16 9 -5 9 8 1 27 -5 42 -11z m385 -25
c-10 -2 -26 -2 -35 0 -10 3 -2 5 17 5 19 0 27 -2 18 -5z m-140 -12 c27 -13 83
-29 132 -36 125 -19 218 -57 248 -102 12 -19 22 -41 22 -49 0 -21 -38 -17 -57
6 -10 11 -23 20 -30 20 -7 0 -13 4 -13 9 0 5 -24 20 -52 34 -42 21 -68 26
-126 25 -69 0 -105 -14 -66 -24 11 -3 27 -16 37 -30 17 -23 17 -24 -1 -24 -30
0 -181 82 -195 106 -4 8 -16 14 -25 14 -17 1 -62 33 -62 44 0 15 41 3 81 -24
24 -16 56 -30 71 -30 14 0 28 -6 31 -12 2 -8 8 -9 13 -4 5 5 4 11 -3 13 -7 3
-13 11 -13 19 0 8 -7 14 -15 14 -15 0 -21 21 -8 33 8 9 10 9 31 -2z m-352
-151 c20 -8 24 -14 16 -22 -14 -14 -62 -1 -62 17 0 18 9 19 46 5z m-385 -43
c-1 -12 -15 -9 -19 4 -3 6 1 10 8 8 6 -3 11 -8 11 -12z m275 -36 c5 -5 20 -11
33 -13 14 -1 26 -9 29 -15 6 -20 -45 -16 -57 5 -10 16 -12 15 -29 -6 -14 -18
-20 -20 -30 -10 -18 18 -15 27 11 38 29 12 31 12 43 1z"/>
<path d="M6355 11379 c-10 -15 1 -23 20 -15 9 3 13 10 10 16 -8 13 -22 13 -30
-1z"/>
<path d="M6414 11366 c-4 -10 -2 -22 4 -28 8 -8 13 -7 18 6 4 10 2 22 -4 28
-8 8 -13 7 -18 -6z"/>
<path d="M6755 11311 c-9 -15 24 -41 51 -41 36 0 84 -28 84 -49 0 -24 7 -30
31 -24 29 8 20 44 -16 63 -16 8 -33 19 -36 24 -8 10 -77 36 -96 36 -6 0 -14
-4 -18 -9z"/>
<path d="M6511 11265 c5 -25 56 -38 92 -24 33 14 27 24 -16 25 -18 1 -43 5
-56 9 -19 7 -22 5 -20 -10z"/>
<path d="M5741 11228 c-14 -5 -32 -7 -41 -6 -20 4 -50 -19 -50 -38 0 -24 23
-64 37 -64 7 0 19 11 25 25 14 32 38 32 38 1 0 -63 27 -75 36 -16 10 61 54 52
54 -11 0 -10 5 -19 10 -19 6 0 10 8 10 18 0 26 20 43 39 33 9 -5 38 -5 66 -1
60 9 69 6 84 -27 9 -20 16 -24 34 -18 24 9 94 12 101 5 2 -3 6 -14 8 -25 2
-13 -3 -21 -17 -23 -30 -6 -38 -17 -27 -38 6 -11 13 -27 16 -36 3 -10 14 -18
25 -18 19 0 31 18 31 49 0 23 49 46 64 31 19 -19 46 -12 46 14 0 18 7 26 28
31 l27 8 -32 13 c-21 9 -33 21 -33 33 0 28 -20 37 -27 13 -3 -11 -12 -23 -21
-27 -18 -6 -80 22 -98 44 -9 11 -14 10 -32 -9 l-21 -22 -23 24 c-20 22 -78 58
-92 58 -3 0 -5 -10 -3 -22 2 -18 -4 -24 -26 -26 -18 -2 -29 2 -33 12 -8 20
-33 21 -40 1 -9 -24 -31 -18 -38 10 -6 23 -11 25 -44 24 -21 -2 -42 0 -47 3
-6 3 -21 2 -34 -4z"/>
<path d="M6717 11213 c-13 -12 -7 -33 8 -33 8 0 23 -9 32 -20 25 -29 63 -27
63 4 0 19 -4 22 -24 19 -18 -4 -26 0 -31 16 -6 20 -34 28 -48 14z"/>
<path d="M5040 11194 c0 -17 22 -14 28 4 2 7 -3 12 -12 12 -9 0 -16 -7 -16
-16z"/>
<path d="M6440 11166 c0 -9 7 -16 16 -16 9 0 14 5 12 12 -6 18 -28 21 -28 4z"/>
<path d="M6540 11135 c0 -9 5 -15 11 -13 6 2 11 8 11 13 0 5 -5 11 -11 13 -6
2 -11 -4 -11 -13z"/>
<path d="M6885 11110 c-3 -11 -11 -20 -16 -20 -5 0 -9 -4 -9 -10 0 -5 7 -10
15 -10 8 0 15 5 15 10 0 6 7 10 15 10 8 0 15 9 15 20 0 11 -6 20 -14 20 -8 0
-18 -9 -21 -20z"/>
<path d="M5932 11108 c3 -7 15 -15 27 -16 16 -3 22 1 19 10 -3 7 -15 15 -27
16 -16 3 -22 -1 -19 -10z"/>
<path d="M6731 11057 c-34 -70 -32 -72 66 -85 59 -8 90 -8 99 -1 14 12 54 -33
54 -62 0 -18 17 -35 26 -26 3 2 7 20 11 39 4 30 2 36 -16 41 -12 3 -21 11 -21
19 0 7 -12 21 -26 31 -20 15 -30 17 -55 8 -18 -6 -37 -7 -47 -1 -9 5 -25 11
-34 14 -12 4 -18 16 -18 36 0 42 -15 37 -39 -13z"/>
<path d="M6982 11038 c-17 -46 1 -59 33 -24 20 22 23 31 14 42 -18 22 -34 16
-47 -18z"/>
<path d="M7095 11010 c-4 -6 -4 -22 -1 -36 8 -31 36 -32 36 0 0 28 -24 53 -35
36z"/>
<path d="M5542 10898 c-19 -19 -14 -37 8 -31 20 5 27 27 12 37 -5 3 -14 0 -20
-6z"/>
<path d="M5600 10895 c0 -8 7 -15 15 -15 8 0 15 7 15 15 0 8 -7 15 -15 15 -8
0 -15 -7 -15 -15z"/>
<path d="M5018 10879 c-24 -13 -23 -39 1 -39 23 0 54 28 46 41 -8 12 -25 11
-47 -2z"/>
<path d="M5760 10875 c0 -8 5 -15 10 -15 6 0 10 7 10 15 0 8 -4 15 -10 15 -5
0 -10 -7 -10 -15z"/>
<path d="M4920 10805 c0 -9 6 -12 15 -9 8 4 12 10 9 15 -8 14 -24 10 -24 -6z"/>
<path d="M5630 10361 c0 -13 27 -21 45 -15 8 4 12 10 9 15 -7 12 -54 12 -54 0z"/>
<path d="M4970 10210 c-13 -9 -13 -11 0 -19 17 -12 30 -5 30 15 0 16 -9 18
-30 4z"/>
<path d="M4307 9973 c-4 -3 -7 -17 -7 -30 0 -16 6 -23 20 -23 16 0 20 7 20 30
0 28 -17 40 -33 23z"/>
<path d="M7400 6561 c0 -11 6 -32 14 -48 37 -73 69 -263 60 -363 -15 -181 -16
-210 -7 -210 11 0 48 161 62 271 17 124 -8 223 -82 327 -33 46 -47 53 -47 23z"/>
<path d="M5327 6224 c-13 -13 5 -24 39 -24 24 0 34 4 32 13 -5 13 -60 22 -71
11z"/>
<path d="M5675 5850 c-4 -6 -2 -17 4 -23 15 -15 25 -2 13 19 -7 12 -11 13 -17
4z"/>
<path d="M5324 5575 c-4 -9 0 -23 8 -33 8 -9 19 -29 26 -44 7 -17 19 -27 29
-26 10 0 26 0 37 0 16 -2 17 -4 5 -18 -12 -15 -9 -21 21 -48 52 -46 74 -84 59
-102 -9 -11 -8 -14 5 -14 9 0 33 -9 53 -20 22 -12 57 -20 84 -20 26 0 66 -7
89 -15 90 -32 92 -16 4 45 -36 25 -70 50 -77 55 -45 38 -96 75 -103 75 -5 0
-23 14 -41 30 -18 17 -34 30 -37 30 -10 0 -106 71 -106 78 0 4 -12 15 -25 25
-23 16 -26 16 -31 2z"/>
<path d="M9707 3597 c-8 -12 -24 -47 -37 -77 -12 -30 -28 -67 -36 -82 -8 -14
-14 -35 -14 -45 0 -40 -46 -57 -71 -26 -15 17 -162 142 -213 181 -23 17 -38
21 -61 16 -16 -3 -33 -9 -38 -13 -4 -4 21 -28 55 -53 145 -106 287 -236 294
-266 7 -32 30 -109 54 -177 12 -35 23 -50 35 -50 33 0 40 29 22 87 -9 29 -23
83 -33 120 l-16 68 32 92 c17 51 35 101 40 110 18 33 48 127 42 132 -13 13
-41 5 -55 -17z"/>
<path d="M9038 3533 c-22 -5 -23 -40 -4 -85 28 -68 39 -104 40 -132 1 -28 -2
-31 -54 -42 -79 -17 -218 -37 -269 -38 l-44 -1 -24 60 c-26 64 -51 121 -63
145 -10 21 -44 24 -63 6 -13 -14 -13 -21 8 -71 12 -30 25 -58 29 -62 3 -3 6
-13 6 -21 0 -8 6 -28 14 -45 29 -68 66 -180 114 -342 8 -27 13 -30 48 -30 37
0 39 1 36 30 -1 17 -9 46 -16 65 -7 19 -21 60 -30 90 -26 91 -25 110 9 110 13
0 57 6 97 14 40 8 108 20 152 25 87 12 95 9 115 -54 5 -16 19 -55 31 -85 12
-30 26 -69 31 -87 12 -38 34 -48 66 -28 22 15 22 17 8 45 -8 16 -15 33 -15 39
0 5 -5 22 -12 38 -25 62 -47 129 -48 144 0 9 -9 38 -21 65 -35 84 -54 135 -71
194 -9 32 -33 62 -47 59 -3 -1 -14 -3 -23 -6z"/>
<path d="M8065 3353 c-33 -8 -64 -18 -69 -24 -6 -5 -18 -9 -28 -9 -10 0 -44
-26 -77 -58 -71 -70 -86 -113 -77 -215 10 -112 75 -215 174 -274 44 -26 54
-28 157 -28 90 0 121 4 170 23 122 47 191 118 197 202 l3 45 -40 0 c-39 0 -40
-1 -50 -43 -14 -58 -56 -107 -116 -138 -42 -21 -65 -25 -137 -26 -74 0 -93 3
-127 23 -82 47 -134 134 -143 235 -10 130 51 201 201 234 72 17 140 3 204 -40
44 -30 52 -30 86 -2 16 15 16 16 0 31 -36 32 -76 53 -129 67 -67 17 -120 16
-199 -3z"/>
<path d="M7476 3201 c-15 -17 -15 -22 -2 -57 8 -22 24 -68 35 -104 11 -36 30
-92 41 -125 35 -97 49 -159 40 -169 -9 -9 -61 19 -121 66 -20 15 -39 28 -42
28 -4 0 -93 59 -299 199 -66 46 -80 51 -110 46 -51 -10 -62 -19 -49 -41 5 -11
24 -62 40 -114 17 -52 50 -156 74 -230 24 -74 48 -153 53 -175 8 -37 11 -40
44 -40 l35 0 -2 49 c-1 27 -6 53 -12 59 -6 6 -11 22 -11 36 0 15 -7 39 -15 55
-8 15 -15 35 -15 43 0 8 -6 29 -14 46 -25 59 -56 169 -50 178 3 5 9 9 14 9 7
0 136 -85 295 -195 231 -161 240 -166 265 -160 14 4 33 13 42 22 15 13 15 19
3 46 -7 18 -21 59 -31 92 -21 75 -46 150 -78 240 -14 39 -26 76 -26 83 0 8 -6
28 -14 45 -7 18 -18 44 -24 60 -13 32 -41 35 -66 8z"/>
<path d="M6725 3000 c-11 -4 -49 -16 -85 -25 -63 -17 -103 -27 -220 -59 -30
-8 -74 -19 -97 -25 -23 -7 -44 -15 -47 -20 -3 -4 6 -39 19 -77 14 -38 25 -75
25 -82 0 -8 6 -28 13 -45 21 -50 38 -99 48 -140 5 -21 13 -45 18 -55 5 -9 19
-49 31 -89 29 -95 41 -111 71 -97 13 6 51 19 84 29 33 9 80 23 105 31 25 7 72
21 105 30 33 8 78 22 100 29 22 7 52 16 68 19 29 7 33 17 16 47 -8 16 -16 19
-47 13 -20 -4 -53 -12 -72 -19 -19 -7 -60 -19 -90 -28 -30 -9 -93 -28 -140
-42 -82 -24 -85 -24 -103 -6 -10 10 -22 33 -27 52 -5 19 -15 52 -23 74 -18 48
-9 72 31 81 15 3 45 11 67 18 22 8 69 22 105 31 36 10 68 21 72 24 4 3 -2 17
-12 31 l-19 25 -58 -18 c-32 -10 -78 -24 -103 -32 -93 -28 -116 -29 -134 -4
-9 13 -16 33 -16 44 0 11 -7 33 -15 49 -8 15 -15 39 -15 51 0 24 3 25 168 70
185 51 252 73 252 85 0 37 -30 49 -75 30z"/>
<path d="M6036 2794 c-11 -10 -17 -36 -18 -77 0 -34 -2 -88 -4 -120 -2 -44 1
-60 13 -64 27 -10 42 21 54 112 6 50 14 107 16 128 5 34 3 37 -20 37 -14 0
-33 -7 -41 -16z"/>
<path d="M5214 2545 c-18 -14 -18 -14 3 -15 23 0 39 15 25 24 -5 3 -18 -1 -28
-9z"/>
<path d="M7838 2437 c-7 -7 -21 -16 -30 -20 -12 -4 -18 -17 -18 -40 0 -43 34
-77 79 -77 45 0 71 -16 71 -44 0 -31 -17 -44 -63 -48 -46 -4 -49 -22 -5 -26
24 -2 42 4 66 24 63 52 28 124 -61 124 -37 0 -49 4 -58 21 -19 36 3 69 46 69
24 0 35 5 35 15 0 19 -43 20 -62 2z"/>
<path d="M4630 2400 c-132 -43 -230 -118 -269 -203 -15 -33 -21 -66 -21 -116
0 -129 66 -242 173 -297 46 -24 63 -27 157 -28 83 0 118 4 165 21 99 35 164
77 223 145 l34 38 -21 62 c-12 34 -21 76 -21 94 0 43 -21 60 -57 45 -16 -6
-48 -15 -73 -20 -73 -16 -158 -38 -169 -46 -17 -10 -13 -43 5 -53 16 -9 103
14 146 38 26 15 74 12 87 -4 7 -8 13 -38 13 -66 1 -44 -2 -55 -23 -72 -47 -38
-128 -88 -142 -88 -8 0 -31 -7 -50 -15 -52 -22 -164 -19 -218 4 -90 40 -139
127 -139 247 0 57 5 81 22 111 77 134 288 204 418 138 27 -14 56 -25 64 -25
45 0 21 62 -36 91 -50 26 -190 25 -268 -1z"/>
<path d="M7610 2302 c0 -16 7 -37 15 -48 8 -10 15 -31 15 -46 0 -33 9 -58 21
-58 14 0 10 54 -6 76 -8 10 -15 31 -15 46 0 33 -9 58 -21 58 -5 0 -9 -13 -9
-28z"/>
<path d="M7297 2293 c-10 -10 -8 -53 2 -53 5 0 11 7 14 14 3 8 21 18 40 21 68
13 102 -36 55 -76 -33 -27 -64 -24 -72 6 -4 14 -11 25 -16 25 -15 0 -12 -41 5
-74 8 -15 15 -40 15 -55 0 -14 4 -32 9 -40 14 -21 24 5 17 43 -12 63 29 69 92
14 61 -53 73 -30 12 25 -42 37 -50 61 -25 71 20 7 18 36 -4 64 -16 18 -29 22
-78 22 -33 0 -63 -3 -66 -7z"/>
<path d="M7017 2203 c-10 -17 -7 -212 3 -218 5 -3 10 2 10 13 0 28 42 62 77
62 22 0 38 -8 52 -26 11 -14 25 -24 31 -22 11 3 -36 71 -87 125 -14 16 -32 38
-40 51 -15 22 -38 29 -46 15z m64 -65 c24 -30 23 -39 -6 -61 -25 -18 -25 -18
-35 8 -13 34 -13 48 2 63 16 16 17 16 39 -10z"/>
<path d="M6750 2130 c0 -5 6 -10 13 -10 18 0 57 -42 57 -61 0 -35 -69 -75 -85
-49 -3 6 -10 10 -16 10 -14 0 -11 -48 5 -78 8 -15 17 -35 20 -45 3 -10 10 -15
16 -12 7 4 4 17 -7 36 -18 29 -18 30 12 54 17 13 36 24 43 25 18 0 33 45 26
80 -6 30 -41 60 -69 60 -8 0 -15 -4 -15 -10z"/>
<path d="M6684 2105 c-8 -20 4 -65 16 -65 6 0 10 11 10 24 0 14 5 28 10 31 17
11 11 25 -10 25 -11 0 -23 -7 -26 -15z"/>
<path d="M5326 2063 c19 -75 20 -78 45 -79 34 -2 40 3 29 29 -5 12 -11 34 -14
50 -5 22 -12 27 -36 27 -28 0 -30 -2 -24 -27z"/>
<path d="M3925 1277 c-17 -13 -18 -18 -7 -41 6 -14 17 -26 23 -26 24 0 80 43
77 59 -4 21 -67 27 -93 8z"/>
</g>
</svg>
